<svg xmlns="http://www.w3.org/2000/svg" viewBox="0 0 150 148">
  <defs>
    <g id="wing1"><path d="M110.0,101.5 L103.0,95.5 L101.0,96.5 L95.0,87.5 L87.0,88.5 L83.0,93.5 L76.0,92.5 L69.0,87.5 L49.0,64.5 L43.0,59.5 L39.0,60.5 L37.5,59.0 L38.5,54.0 L33.5,49.0 L33.5,44.0 L24.0,32.5 L19.5,31.0 L20.5,28.0 L15.5,22.0 L20.0,20.5 L24.0,22.5 L23.5,21.0 L28.0,17.5 L31.5,21.0 L28.5,26.0 L49.0,42.5 L56.0,41.5 L59.5,45.0 L59.5,49.0 L64.5,51.0 L62.5,55.0 L63.5,58.0 L69.0,61.5 L70.5,60.0 L69.5,51.0 L72.5,43.0 L69.0,43.5 L67.5,41.0 L74.0,39.5 L72.5,36.0 L77.0,34.5 L93.0,19.5 L106.0,20.5 L109.5,26.0 L111.5,38.0 L116.5,46.0 L116.5,52.0 L114.5,54.0 L125.5,66.0 L127.5,71.0 L126.5,75.0 L128.5,77.0 L125.0,86.5 L120.0,90.5 L115.0,91.5 L112.0,95.5 L108.5,96.0 L111.5,98.0 L110.0,101.5 Z"/></g>
    <g id="core1"><path d="M111.0,92.5 L110.0,89.5 L102.0,89.5 L91.0,83.5 L88.0,86.5 L81.0,78.5 L77.0,76.5 L80.5,89.0 L77.0,90.5 L71.0,86.5 L61.5,78.0 L48.5,62.0 L47.5,59.0 L49.5,57.0 L41.5,53.0 L31.5,38.0 L18.5,23.0 L27.0,26.5 L51.0,46.5 L54.0,44.5 L54.5,51.0 L69.0,66.5 L72.0,66.5 L73.5,45.0 L78.5,36.0 L85.0,29.5 L94.0,24.5 L94.0,22.5 L106.0,22.5 L107.5,25.0 L107.5,34.0 L115.5,50.0 L111.0,54.5 L105.5,57.0 L118.0,59.5 L125.5,71.0 L124.5,75.0 L126.5,77.0 L124.5,84.0 L118.0,89.5 L112.0,89.5 L111.0,92.5 Z"/></g>
    <filter id="halo1" x="-80%" y="-80%" width="260%" height="260%"><feGaussianBlur stdDeviation="7"/></filter>
    <filter id="soft1" x="-40%" y="-40%" width="180%" height="180%"><feGaussianBlur stdDeviation="1.6"/></filter>
    <filter id="corefx1" x="-40%" y="-40%" width="180%" height="180%"><feGaussianBlur stdDeviation="2.2"/></filter>
  </defs>
  <use href="#wing1" fill="#e2b95e" filter="url(#halo1)" opacity="0.6"/>
  <use href="#wing1" fill="#f7e6ad" filter="url(#soft1)"/>
  <use href="#core1" fill="#fffdf0" filter="url(#corefx1)"/>
  <g fill="#fff6d8"><circle cx="89.2" cy="17.2" r="1.24" opacity="0.83"/><circle cx="37.9" cy="18.1" r="1.44" opacity="0.8"/><circle cx="110.5" cy="19.0" r="0.72" opacity="0.48"/><circle cx="45.5" cy="29.8" r="2.44" opacity="0.65"/><circle cx="120.5" cy="29.5" r="1.02" opacity="0.64"/><circle cx="123.0" cy="33.0" r="1.14" opacity="0.59"/><circle cx="115.1" cy="35.2" r="2.38" opacity="0.79"/><circle cx="47.7" cy="37.3" r="1.61" opacity="0.8"/><circle cx="70.0" cy="36.5" r="0.72" opacity="0.44"/><circle cx="63.5" cy="41.0" r="1.02" opacity="0.46"/><circle cx="63.1" cy="45.1" r="1.76" opacity="0.85"/><circle cx="126.0" cy="43.5" r="0.72" opacity="0.45"/><circle cx="31.3" cy="49.7" r="0.88" opacity="0.48"/><circle cx="133.5" cy="49.5" r="1.02" opacity="0.75"/><circle cx="137.1" cy="56.4" r="1.9" opacity="0.84"/><circle cx="67.0" cy="58.5" r="1.02" opacity="0.43"/><circle cx="44.0" cy="63.8" r="1.02" opacity="0.52"/><circle cx="135.5" cy="63.5" r="1.02" opacity="0.67"/><circle cx="42.1" cy="67.0" r="1.61" opacity="0.55"/><circle cx="64.3" cy="92.7" r="1.61" opacity="0.81"/><circle cx="72.6" cy="93.2" r="1.44" opacity="0.82"/><circle cx="115.0" cy="96.8" r="1.02" opacity="0.73"/><circle cx="87.4" cy="99.2" r="2.38" opacity="0.74"/><circle cx="66.9" cy="102.3" r="3.2" opacity="0.81"/><circle cx="102.5" cy="100.5" r="1.02" opacity="0.51"/><circle cx="95.2" cy="104.2" r="1.24" opacity="0.67"/><circle cx="75.1" cy="108.9" r="1.44" opacity="0.79"/><circle cx="91.5" cy="113.0" r="1.24" opacity="0.72"/><circle cx="96.9" cy="119.2" r="2.78" opacity="0.8"/><circle cx="116.7" cy="118.7" r="0.88" opacity="0.5"/><circle cx="110.3" cy="120.3" r="0.88" opacity="0.65"/><circle cx="107.5" cy="125.2" r="1.61" opacity="0.72"/><circle cx="85.0" cy="126.5" r="0.72" opacity="0.53"/><circle cx="97.0" cy="127.7" r="1.34" opacity="0.85"/><circle cx="108.7" cy="139.3" r="0.88" opacity="0.73"/><circle cx="119.5" cy="144.0" r="0.72" opacity="0.72"/></g>
</svg>
