<svg xmlns="http://www.w3.org/2000/svg" viewBox="0 0 142 150">
  <defs>
    <g id="wing3"><path d="M78.0,93.5 L68.0,85.5 L63.0,85.5 L57.0,92.5 L54.0,91.5 L50.0,93.5 L42.0,93.5 L30.5,89.0 L32.5,86.0 L29.5,80.0 L30.5,60.0 L25.5,47.0 L26.5,37.0 L23.0,37.5 L20.5,35.0 L23.0,31.5 L26.0,32.5 L29.0,29.5 L38.0,29.5 L48.0,32.5 L67.0,50.5 L74.0,54.5 L87.5,36.0 L86.5,28.0 L88.0,26.5 L96.0,28.5 L110.0,19.5 L116.5,21.0 L116.5,28.0 L113.5,29.0 L108.5,47.0 L102.5,55.0 L108.5,60.0 L102.5,63.0 L101.5,72.0 L95.5,81.0 L89.0,87.5 L78.0,93.5 Z"/></g>
    <g id="core3"><path d="M48.0,91.5 L39.0,89.5 L33.5,83.0 L31.5,72.0 L32.5,68.0 L38.5,62.0 L32.0,58.5 L30.5,56.0 L30.5,41.0 L28.5,35.0 L31.0,32.5 L38.0,32.5 L52.0,38.5 L63.5,51.0 L67.5,57.0 L68.5,62.0 L72.0,63.5 L76.5,59.0 L79.5,53.0 L78.5,51.0 L82.5,49.0 L86.5,41.0 L98.0,29.5 L111.0,22.5 L112.5,26.0 L107.5,37.0 L106.5,47.0 L101.0,53.5 L96.5,56.0 L100.5,59.0 L100.5,65.0 L98.5,72.0 L92.5,81.0 L85.0,87.5 L80.0,87.5 L74.5,83.0 L72.5,77.0 L70.0,75.5 L67.0,80.5 L60.0,83.5 L55.0,89.5 L48.0,91.5 Z"/></g>
    <filter id="halo3" x="-80%" y="-80%" width="260%" height="260%"><feGaussianBlur stdDeviation="7"/></filter>
    <filter id="soft3" x="-40%" y="-40%" width="180%" height="180%"><feGaussianBlur stdDeviation="1.6"/></filter>
    <filter id="corefx3" x="-40%" y="-40%" width="180%" height="180%"><feGaussianBlur stdDeviation="2.2"/></filter>
  </defs>
  <use href="#wing3" fill="#e2b95e" filter="url(#halo3)" opacity="0.6"/>
  <use href="#wing3" fill="#f7e6ad" filter="url(#soft3)"/>
  <use href="#core3" fill="#fffdf0" filter="url(#corefx3)"/>
  <g fill="#fff6d8"><circle cx="43.5" cy="25.1" r="1.97" opacity="0.8"/><circle cx="120.7" cy="24.7" r="0.88" opacity="0.67"/><circle cx="58.9" cy="28.7" r="1.52" opacity="0.55"/><circle cx="76.4" cy="36.2" r="1.14" opacity="0.65"/><circle cx="71.4" cy="40.4" r="1.83" opacity="0.6"/><circle cx="112.0" cy="42.5" r="0.72" opacity="0.54"/><circle cx="16.0" cy="55.0" r="1.14" opacity="0.65"/><circle cx="22.1" cy="57.9" r="1.9" opacity="0.73"/><circle cx="27.6" cy="61.8" r="1.14" opacity="0.56"/><circle cx="112.8" cy="61.6" r="1.14" opacity="0.66"/><circle cx="25.0" cy="64.0" r="1.14" opacity="0.65"/><circle cx="103.0" cy="77.5" r="1.24" opacity="0.63"/><circle cx="27.3" cy="86.8" r="1.76" opacity="0.66"/><circle cx="65.2" cy="88.4" r="1.14" opacity="0.59"/><circle cx="22.5" cy="89.0" r="0.72" opacity="0.59"/><circle cx="85.3" cy="93.0" r="1.34" opacity="0.64"/><circle cx="60.0" cy="94.3" r="1.34" opacity="0.52"/><circle cx="45.0" cy="98.5" r="1.76" opacity="0.6"/><circle cx="66.2" cy="98.4" r="1.14" opacity="0.52"/><circle cx="99.5" cy="99.5" r="1.02" opacity="0.56"/><circle cx="93.7" cy="101.7" r="2.33" opacity="0.7"/><circle cx="59.8" cy="104.6" r="2.78" opacity="0.66"/><circle cx="40.5" cy="106.3" r="1.9" opacity="0.67"/><circle cx="52.3" cy="107.0" r="2.49" opacity="0.69"/><circle cx="90.5" cy="108.5" r="1.02" opacity="0.54"/><circle cx="59.0" cy="115.2" r="3.13" opacity="0.65"/><circle cx="36.5" cy="111.5" r="1.02" opacity="0.55"/><circle cx="57.0" cy="111.5" r="1.24" opacity="0.46"/><circle cx="71.4" cy="112.7" r="1.52" opacity="0.56"/><circle cx="57.3" cy="127.9" r="2.03" opacity="0.73"/><circle cx="50.5" cy="129.5" r="1.02" opacity="0.61"/><circle cx="62.5" cy="130.5" r="1.02" opacity="0.59"/></g>
</svg>
