<svg xmlns="http://www.w3.org/2000/svg" viewBox="0 0 118 130">
  <defs>
    <g id="wing2"><path d="M63.0,81.5 L60.0,79.5 L52.0,81.5 L47.0,76.5 L45.0,77.5 L33.5,64.0 L29.5,55.0 L30.5,52.0 L26.5,51.0 L25.5,48.0 L27.5,44.0 L31.5,46.0 L27.5,37.0 L27.5,24.0 L31.0,20.5 L34.5,22.0 L33.5,25.0 L52.5,45.0 L52.5,49.0 L59.0,60.5 L61.5,57.0 L58.5,52.0 L61.0,48.5 L64.5,50.0 L72.5,32.0 L87.0,19.5 L89.5,21.0 L88.5,29.0 L90.5,39.0 L88.5,45.0 L91.5,48.0 L91.5,55.0 L93.5,57.0 L89.5,61.0 L87.5,68.0 L81.0,74.5 L74.0,78.5 L66.0,78.5 L63.0,81.5 Z"/></g>
    <g id="core2"><path d="M62.0,79.5 L61.5,77.0 L58.0,74.5 L57.0,76.5 L50.0,76.5 L46.0,74.5 L36.5,63.0 L33.5,52.0 L35.0,49.5 L38.5,49.0 L32.5,41.0 L31.5,31.0 L35.0,29.5 L44.5,40.0 L49.5,47.0 L58.5,69.0 L61.0,69.5 L65.5,53.0 L73.5,37.0 L87.0,22.5 L88.5,39.0 L82.5,48.0 L89.5,48.0 L89.5,59.0 L87.5,61.0 L87.5,64.0 L81.0,72.5 L74.0,76.5 L67.0,76.5 L63.0,73.5 L62.0,79.5 Z"/></g>
    <filter id="halo2" x="-80%" y="-80%" width="260%" height="260%"><feGaussianBlur stdDeviation="7"/></filter>
    <filter id="soft2" x="-40%" y="-40%" width="180%" height="180%"><feGaussianBlur stdDeviation="1.6"/></filter>
    <filter id="corefx2" x="-40%" y="-40%" width="180%" height="180%"><feGaussianBlur stdDeviation="2.2"/></filter>
  </defs>
  <use href="#wing2" fill="#e2b95e" filter="url(#halo2)" opacity="0.6"/>
  <use href="#wing2" fill="#f7e6ad" filter="url(#soft2)"/>
  <use href="#core2" fill="#fffdf0" filter="url(#corefx2)"/>
  <g fill="#fff6d8"><circle cx="79.3" cy="23.3" r="0.88" opacity="0.65"/><circle cx="45.4" cy="31.4" r="1.97" opacity="0.83"/><circle cx="70.0" cy="32.5" r="0.72" opacity="0.63"/><circle cx="55.0" cy="35.0" r="1.14" opacity="0.79"/><circle cx="51.6" cy="37.8" r="1.52" opacity="0.71"/><circle cx="57.4" cy="45.2" r="3.2" opacity="0.69"/><circle cx="67.0" cy="40.5" r="0.72" opacity="0.62"/><circle cx="65.0" cy="43.5" r="0.72" opacity="0.43"/><circle cx="22.5" cy="47.5" r="1.02" opacity="0.67"/><circle cx="22.0" cy="53.5" r="1.76" opacity="0.74"/><circle cx="28.0" cy="56.5" r="0.72" opacity="0.44"/><circle cx="25.0" cy="59.0" r="1.14" opacity="0.75"/><circle cx="30.0" cy="65.8" r="2.44" opacity="0.63"/><circle cx="75.3" cy="80.3" r="0.88" opacity="0.75"/><circle cx="49.5" cy="83.5" r="1.02" opacity="0.68"/><circle cx="77.1" cy="84.7" r="1.52" opacity="0.68"/><circle cx="61.6" cy="87.6" r="2.49" opacity="0.73"/><circle cx="65.8" cy="84.4" r="1.14" opacity="0.67"/><circle cx="75.1" cy="90.8" r="2.03" opacity="0.75"/><circle cx="59.0" cy="91.5" r="0.72" opacity="0.44"/><circle cx="61.4" cy="95.2" r="3.05" opacity="0.81"/><circle cx="66.5" cy="95.5" r="1.02" opacity="0.52"/><circle cx="75.8" cy="96.2" r="1.83" opacity="0.73"/><circle cx="66.5" cy="99.5" r="1.02" opacity="0.68"/><circle cx="79.9" cy="103.9" r="1.68" opacity="0.67"/><circle cx="61.5" cy="108.5" r="1.02" opacity="0.48"/><circle cx="69.2" cy="110.0" r="1.02" opacity="0.74"/><circle cx="64.1" cy="110.9" r="1.44" opacity="0.7"/><circle cx="60.7" cy="114.7" r="0.88" opacity="0.57"/></g>
</svg>
